<svg width="154" height="46" viewBox="0 0 154 46" fill="none" xmlns="http://www.w3.org/2000/svg">
  <circle cx="19.5" cy="26.5" r="18.5" stroke="#EF4444" stroke-width="2" />
  <path d="M41.449 27.3843C41.449 35.8389 34.8321 42.6343 26.7406 42.6343C18.6491 42.6343 12.0323 35.8389 12.0323 27.3843C12.0323 18.9298 18.6491 12.1343 26.7406 12.1343C34.8321 12.1343 41.449 18.9298 41.449 27.3843Z" fill="#EF4444" stroke="white" stroke-width="2" />
  <path d="M51.13 36H52.18L54.18 41.93H54.24L56.24 36H57.28L54.91 43H53.51L51.13 36ZM58.1963 37.73H59.2263V43H58.1963V37.73ZM58.7063 36.77C58.5263 36.77 58.3763 36.71 58.2563 36.59C58.1363 36.47 58.0763 36.32 58.0763 36.14C58.0763 35.96 58.1363 35.81 58.2563 35.69C58.3763 35.57 58.5263 35.51 58.7063 35.51C58.8863 35.51 59.0363 35.5733 59.1563 35.7C59.2763 35.82 59.3363 35.9667 59.3363 36.14C59.3363 36.3133 59.2763 36.4633 59.1563 36.59C59.0363 36.71 58.8863 36.77 58.7063 36.77ZM60.6937 37.73H61.7237V38.57H61.7837C61.8703 38.3367 62.0237 38.14 62.2437 37.98C62.4703 37.8133 62.7603 37.73 63.1137 37.73C63.207 37.73 63.287 37.7333 63.3537 37.74C63.4203 37.7467 63.487 37.7633 63.5537 37.79L63.5137 38.77C63.3337 38.7167 63.147 38.69 62.9537 38.69C62.5603 38.69 62.257 38.8033 62.0437 39.03C61.8303 39.25 61.7237 39.6167 61.7237 40.13V43H60.6937V37.73ZM65.9463 38.55V41.37C65.9463 41.6167 65.9563 41.7967 65.9763 41.91C66.0029 42.0233 66.0663 42.1133 66.1663 42.18C66.2729 42.2467 66.4463 42.28 66.6863 42.28C66.8529 42.28 67.0163 42.26 67.1763 42.22V42.95C67.1296 42.97 67.0196 42.99 66.8463 43.01C66.6729 43.03 66.4996 43.04 66.3263 43.04C65.9063 43.04 65.5929 42.98 65.3863 42.86C65.1796 42.7333 65.0463 42.5733 64.9863 42.38C64.9329 42.18 64.9062 41.92 64.9062 41.6L64.9163 38.55H63.9663V37.73H64.9163V36H65.9463V37.73H67.1763V38.55H65.9463ZM73.0297 43H71.9897V42.05H71.9197C71.7864 42.3433 71.5797 42.59 71.2997 42.79C71.0197 42.99 70.6797 43.09 70.2797 43.09C69.8264 43.09 69.4564 42.9833 69.1697 42.77C68.8897 42.55 68.6864 42.2733 68.5597 41.94C68.433 41.6 68.3697 41.2433 68.3697 40.87V37.73H69.3997V40.72C69.3997 41.1867 69.5164 41.55 69.7497 41.81C69.983 42.07 70.293 42.2 70.6797 42.2C71.0864 42.2 71.4064 42.0633 71.6397 41.79C71.873 41.51 71.9897 41.1533 71.9897 40.72V37.73H73.0297V43ZM76.2563 43.07C75.8029 43.07 75.4129 42.9533 75.0863 42.72C74.7596 42.4867 74.5096 42.1633 74.3363 41.75C74.1696 41.3367 74.0863 40.8667 74.0863 40.34C74.0863 39.8067 74.1729 39.3333 74.3463 38.92C74.5196 38.5067 74.7696 38.1833 75.0963 37.95C75.4296 37.71 75.8263 37.59 76.2863 37.59C76.7463 37.59 77.1129 37.6967 77.3863 37.91C77.6596 38.1233 77.8663 38.37 78.0063 38.65H78.0763V37.73H79.1163V43H78.0763V41.98H78.0063C77.8596 42.2733 77.6463 42.53 77.3663 42.75C77.0863 42.9633 76.7163 43.07 76.2563 43.07ZM76.6063 42.21C77.0796 42.21 77.4396 42.03 77.6863 41.67C77.9396 41.3033 78.0663 40.8567 78.0663 40.33C78.0663 39.8033 77.9396 39.36 77.6863 39C77.4396 38.64 77.0796 38.46 76.6063 38.46C76.1263 38.46 75.7629 38.64 75.5163 39C75.2696 39.36 75.1463 39.8 75.1463 40.32C75.1463 40.8533 75.2663 41.3033 75.5063 41.67C75.7529 42.03 76.1196 42.21 76.6063 42.21ZM81.9977 43.04C81.571 43.04 81.2543 42.9733 81.0477 42.84C80.841 42.7067 80.711 42.5367 80.6577 42.33C80.6043 42.1167 80.5777 41.8433 80.5777 41.51L80.5877 35.5H81.6177V41.33C81.6177 41.5767 81.6277 41.76 81.6477 41.88C81.6743 42 81.741 42.0967 81.8477 42.17C81.9543 42.2433 82.1243 42.28 82.3577 42.28C82.4843 42.28 82.5977 42.27 82.6977 42.25V42.99C82.4177 43.0233 82.1843 43.04 81.9977 43.04ZM87.6748 38.55V41.37C87.6748 41.6167 87.6848 41.7967 87.7048 41.91C87.7314 42.0233 87.7948 42.1133 87.8948 42.18C88.0014 42.2467 88.1748 42.28 88.4148 42.28C88.5814 42.28 88.7448 42.26 88.9048 42.22V42.95C88.8581 42.97 88.7481 42.99 88.5748 43.01C88.4014 43.03 88.2281 43.04 88.0548 43.04C87.6348 43.04 87.3214 42.98 87.1148 42.86C86.9081 42.7333 86.7748 42.5733 86.7148 42.38C86.6614 42.18 86.6348 41.92 86.6348 41.6L86.6448 38.55H85.6948V37.73H86.6448V36H87.6748V37.73H88.9048V38.55H87.6748ZM92.3682 43.07C91.8215 43.07 91.3615 42.94 90.9882 42.68C90.6149 42.42 90.3382 42.0833 90.1582 41.67C89.9782 41.25 89.8882 40.8033 89.8882 40.33C89.8882 39.8567 89.9782 39.4133 90.1582 39C90.3382 38.58 90.6149 38.24 90.9882 37.98C91.3682 37.72 91.8315 37.59 92.3782 37.59C93.0982 37.59 93.6715 37.8267 94.0982 38.3C94.5249 38.7667 94.7382 39.4467 94.7382 40.34V40.63H90.8982V40.7C90.8982 40.9667 90.9582 41.2167 91.0782 41.45C91.1982 41.6833 91.3682 41.8733 91.5882 42.02C91.8082 42.16 92.0615 42.23 92.3482 42.23C92.6615 42.23 92.9315 42.1533 93.1582 42C93.3849 41.84 93.5482 41.6267 93.6482 41.36H94.6682C94.5349 41.8533 94.2715 42.2633 93.8782 42.59C93.4849 42.91 92.9815 43.07 92.3682 43.07ZM93.7282 39.92C93.7015 39.38 93.5649 38.99 93.3182 38.75C93.0782 38.5033 92.7582 38.38 92.3582 38.38C91.9315 38.38 91.5882 38.52 91.3282 38.8C91.0749 39.08 90.9415 39.4533 90.9282 39.92H93.7282ZM95.8988 37.73H96.9288V38.57H96.9888C97.0754 38.3367 97.2288 38.14 97.4488 37.98C97.6754 37.8133 97.9654 37.73 98.3188 37.73C98.4121 37.73 98.4921 37.7333 98.5588 37.74C98.6254 37.7467 98.6921 37.7633 98.7588 37.79L98.7188 38.77C98.5388 38.7167 98.3521 38.69 98.1587 38.69C97.7654 38.69 97.4621 38.8033 97.2488 39.03C97.0354 39.25 96.9288 39.6167 96.9288 40.13V43H95.8988V37.73ZM99.6588 37.73H100.689V38.66H100.769C100.789 38.58 100.855 38.4567 100.969 38.29C101.082 38.1233 101.255 37.9667 101.489 37.82C101.722 37.6667 102.015 37.59 102.369 37.59C102.749 37.59 103.062 37.6767 103.309 37.85C103.562 38.0233 103.749 38.21 103.869 38.41C103.989 38.61 104.049 38.7367 104.049 38.79H104.129C104.162 38.6967 104.235 38.56 104.349 38.38C104.469 38.1933 104.659 38.0167 104.919 37.85C105.185 37.6767 105.515 37.59 105.909 37.59C106.342 37.59 106.699 37.7033 106.979 37.93C107.265 38.15 107.472 38.43 107.599 38.77C107.725 39.1033 107.789 39.45 107.789 39.81V43H106.759V39.91C106.759 39.4567 106.639 39.1133 106.399 38.88C106.165 38.64 105.875 38.52 105.529 38.52C105.169 38.52 104.862 38.6433 104.609 38.89C104.362 39.13 104.239 39.47 104.239 39.91V43H103.209V39.91C103.209 39.4567 103.089 39.1133 102.849 38.88C102.615 38.64 102.325 38.52 101.979 38.52C101.619 38.52 101.312 38.6433 101.059 38.89C100.812 39.13 100.689 39.47 100.689 39.91V43H99.6588V37.73ZM113.357 43.07C112.903 43.07 112.513 42.9533 112.187 42.72C111.86 42.4867 111.61 42.1633 111.437 41.75C111.27 41.3367 111.187 40.8667 111.187 40.34C111.187 39.8067 111.27 39.3333 111.437 38.92C111.61 38.5067 111.86 38.1833 112.187 37.95C112.52 37.71 112.917 37.59 113.377 37.59C113.837 37.59 114.203 37.6967 114.477 37.91C114.75 38.1233 114.957 38.37 115.097 38.65H115.167V35.5H116.217V43H115.167V41.98H115.097C114.95 42.2733 114.737 42.53 114.457 42.75C114.177 42.9633 113.81 43.07 113.357 43.07ZM113.697 42.21C114.17 42.21 114.53 42.03 114.777 41.67C115.03 41.31 115.157 40.8667 115.157 40.34C115.157 39.8133 115.03 39.37 114.777 39.01C114.53 38.65 114.17 38.47 113.697 38.47C113.21 38.47 112.847 38.65 112.607 39.01C112.367 39.3633 112.247 39.8033 112.247 40.33C112.247 40.8633 112.367 41.31 112.607 41.67C112.853 42.03 113.217 42.21 113.697 42.21ZM119.858 43.07C119.312 43.07 118.852 42.94 118.478 42.68C118.105 42.42 117.828 42.0833 117.648 41.67C117.468 41.25 117.378 40.8033 117.378 40.33C117.378 39.8567 117.468 39.4133 117.648 39C117.828 38.58 118.105 38.24 118.478 37.98C118.858 37.72 119.322 37.59 119.868 37.59C120.588 37.59 121.162 37.8267 121.588 38.3C122.015 38.7667 122.228 39.4467 122.228 40.34V40.63H118.388V40.7C118.388 40.9667 118.448 41.2167 118.568 41.45C118.688 41.6833 118.858 41.8733 119.078 42.02C119.298 42.16 119.552 42.23 119.838 42.23C120.152 42.23 120.422 42.1533 120.648 42C120.875 41.84 121.038 41.6267 121.138 41.36H122.158C122.025 41.8533 121.762 42.2633 121.368 42.59C120.975 42.91 120.472 43.07 119.858 43.07ZM121.218 39.92C121.192 39.38 121.055 38.99 120.808 38.75C120.568 38.5033 120.248 38.38 119.848 38.38C119.422 38.38 119.078 38.52 118.818 38.8C118.565 39.08 118.432 39.4533 118.418 39.92H121.218ZM126.249 43.07C125.796 43.07 125.429 42.9633 125.149 42.75C124.869 42.53 124.656 42.2733 124.509 41.98H124.439V45.05H123.389V37.73H124.439V38.65H124.509C124.649 38.37 124.856 38.1233 125.129 37.91C125.402 37.6967 125.769 37.59 126.229 37.59C126.689 37.59 127.082 37.71 127.409 37.95C127.742 38.1833 127.992 38.5067 128.159 38.92C128.332 39.3333 128.419 39.8067 128.419 40.34C128.419 40.8667 128.332 41.3367 128.159 41.75C127.992 42.1633 127.746 42.4867 127.419 42.72C127.092 42.9533 126.702 43.07 126.249 43.07ZM125.909 42.21C126.389 42.21 126.749 42.03 126.989 41.67C127.236 41.31 127.359 40.8633 127.359 40.33C127.359 39.8033 127.239 39.3633 126.999 39.01C126.759 38.65 126.396 38.47 125.909 38.47C125.436 38.47 125.072 38.65 124.819 39.01C124.572 39.37 124.449 39.8133 124.449 40.34C124.449 40.8667 124.572 41.31 124.819 41.67C125.072 42.03 125.436 42.21 125.909 42.21ZM131.88 43.07C131.34 43.07 130.883 42.9433 130.51 42.69C130.137 42.4367 129.857 42.1033 129.67 41.69C129.49 41.27 129.4 40.82 129.4 40.34C129.4 39.8533 129.49 39.4033 129.67 38.99C129.857 38.57 130.137 38.2333 130.51 37.98C130.883 37.72 131.34 37.59 131.88 37.59C132.42 37.59 132.877 37.72 133.25 37.98C133.623 38.2333 133.903 38.57 134.09 38.99C134.277 39.4033 134.37 39.85 134.37 40.33C134.37 40.81 134.277 41.26 134.09 41.68C133.903 42.0933 133.623 42.43 133.25 42.69C132.877 42.9433 132.42 43.07 131.88 43.07ZM131.88 42.21C132.34 42.21 132.697 42.03 132.95 41.67C133.21 41.31 133.34 40.86 133.34 40.32C133.34 39.78 133.21 39.3333 132.95 38.98C132.697 38.6267 132.34 38.45 131.88 38.45C131.427 38.45 131.07 38.63 130.81 38.99C130.55 39.3433 130.42 39.7867 130.42 40.32C130.42 40.86 130.547 41.31 130.8 41.67C131.06 42.03 131.42 42.21 131.88 42.21ZM137.378 43.07C136.945 43.07 136.571 42.9867 136.258 42.82C135.945 42.6533 135.705 42.4367 135.538 42.17C135.371 41.8967 135.288 41.6133 135.288 41.32V41.27H136.308V41.31C136.308 41.55 136.405 41.7667 136.598 41.96C136.791 42.1467 137.061 42.24 137.408 42.24C137.695 42.24 137.931 42.17 138.118 42.03C138.305 41.89 138.398 41.7 138.398 41.46C138.398 41.2533 138.325 41.0933 138.178 40.98C138.031 40.86 137.845 40.78 137.618 40.74L136.958 40.64C136.531 40.5733 136.168 40.4233 135.868 40.19C135.568 39.95 135.418 39.6033 135.418 39.15C135.418 38.6567 135.595 38.2733 135.948 38C136.301 37.7267 136.758 37.59 137.318 37.59C137.725 37.59 138.078 37.6667 138.378 37.82C138.678 37.9667 138.905 38.1633 139.058 38.41C139.211 38.6567 139.288 38.9233 139.288 39.21V39.25H138.268V39.23C138.268 39.03 138.188 38.8367 138.028 38.65C137.868 38.4633 137.621 38.37 137.288 38.37C137.008 38.37 136.781 38.44 136.608 38.58C136.435 38.72 136.348 38.9033 136.348 39.13C136.348 39.3233 136.421 39.48 136.568 39.6C136.715 39.72 136.898 39.7967 137.118 39.83L137.838 39.96C138.278 40.04 138.645 40.1967 138.938 40.43C139.238 40.6633 139.388 41.0033 139.388 41.45C139.388 41.77 139.301 42.0533 139.128 42.3C138.955 42.5467 138.715 42.7367 138.408 42.87C138.101 43.0033 137.758 43.07 137.378 43.07ZM140.579 37.73H141.609V43H140.579V37.73ZM141.089 36.77C140.909 36.77 140.759 36.71 140.639 36.59C140.519 36.47 140.459 36.32 140.459 36.14C140.459 35.96 140.519 35.81 140.639 35.69C140.759 35.57 140.909 35.51 141.089 35.51C141.269 35.51 141.419 35.5733 141.539 35.7C141.659 35.82 141.719 35.9667 141.719 36.14C141.719 36.3133 141.659 36.4633 141.539 36.59C141.419 36.71 141.269 36.77 141.089 36.77ZM144.686 38.55V41.37C144.686 41.6167 144.696 41.7967 144.716 41.91C144.743 42.0233 144.806 42.1133 144.906 42.18C145.013 42.2467 145.186 42.28 145.426 42.28C145.593 42.28 145.756 42.26 145.916 42.22V42.95C145.87 42.97 145.76 42.99 145.586 43.01C145.413 43.03 145.24 43.04 145.066 43.04C144.646 43.04 144.333 42.98 144.126 42.86C143.92 42.7333 143.786 42.5733 143.726 42.38C143.673 42.18 143.646 41.92 143.646 41.6L143.656 38.55H142.706V37.73H143.656V36H144.686V37.73H145.916V38.55H144.686Z" fill="#EF4444" />
  <path d="M54.725 30.225C53.3417 30.225 52.15 29.95 51.15 29.4C50.1667 28.8333 49.4167 28.1083 48.9 27.225C48.4 26.325 48.15 25.3917 48.15 24.425V24.275H51.475V24.425C51.475 24.8917 51.5917 25.3667 51.825 25.85C52.0583 26.3167 52.4167 26.7167 52.9 27.05C53.4 27.3667 54.025 27.525 54.775 27.525C55.675 27.525 56.4167 27.2917 57 26.825C57.5833 26.3583 57.875 25.7333 57.875 24.95C57.875 24.2833 57.6417 23.75 57.175 23.35C56.725 22.95 56.1583 22.6833 55.475 22.55L53.2 22.1C52.1167 21.8667 51.075 21.4083 50.075 20.725C49.0917 20.025 48.6 18.8583 48.6 17.225C48.6 16.1917 48.85 15.2917 49.35 14.525C49.8667 13.7583 50.5667 13.175 51.45 12.775C52.35 12.3583 53.3833 12.15 54.55 12.15C55.8667 12.15 56.9917 12.4083 57.925 12.925C58.875 13.4417 59.5917 14.1083 60.075 14.925C60.5583 15.7417 60.8 16.6 60.8 17.5V17.6H57.475V17.525C57.475 17.125 57.375 16.7083 57.175 16.275C56.9917 15.8417 56.6667 15.475 56.2 15.175C55.75 14.875 55.1583 14.725 54.425 14.725C53.575 14.725 52.9 14.9583 52.4 15.425C51.9 15.8917 51.65 16.4833 51.65 17.2C51.65 17.85 51.875 18.3667 52.325 18.75C52.775 19.1333 53.3583 19.4 54.075 19.55L56.25 20C57.5333 20.2667 58.65 20.775 59.6 21.525C60.5667 22.2583 61.05 23.375 61.05 24.875C61.05 25.925 60.775 26.8583 60.225 27.675C59.6917 28.475 58.9417 29.1 57.975 29.55C57.025 30 55.9417 30.225 54.725 30.225ZM75.4391 30H72.3891V27.775H72.2391C71.9224 28.4583 71.4224 29.0417 70.7391 29.525C70.0724 30.0083 69.2557 30.25 68.2891 30.25C67.1391 30.25 66.2141 29.975 65.5141 29.425C64.8141 28.8583 64.3224 28.1583 64.0391 27.325C63.7557 26.4917 63.6141 25.6333 63.6141 24.75V16.8H66.6391V24.275C66.6391 25.3417 66.8891 26.175 67.3891 26.775C67.8891 27.375 68.5807 27.675 69.4641 27.675C70.4141 27.675 71.1391 27.3583 71.6391 26.725C72.1391 26.075 72.3891 25.2583 72.3891 24.275V16.8H75.4391V30ZM78.6287 16.8H81.6537V19.025H81.8287C81.912 18.8083 82.087 18.5083 82.3537 18.125C82.6204 17.7417 83.037 17.375 83.6037 17.025C84.1704 16.6583 84.8704 16.475 85.7037 16.475C86.6037 16.475 87.3537 16.6833 87.9537 17.1C88.5537 17.5167 88.987 17.95 89.2537 18.4C89.537 18.85 89.712 19.1833 89.7787 19.4H89.9537C90.2204 18.8 90.662 18.1667 91.2787 17.5C91.912 16.8167 92.9037 16.475 94.2537 16.475C95.3704 16.475 96.2704 16.7667 96.9537 17.35C97.6537 17.9167 98.1537 18.625 98.4537 19.475C98.7537 20.3083 98.9037 21.1333 98.9037 21.95V30H95.8787V22.25C95.8787 21.2167 95.612 20.4417 95.0787 19.925C94.562 19.3917 93.912 19.125 93.1287 19.125C92.3454 19.125 91.6704 19.4 91.1037 19.95C90.5537 20.4833 90.2787 21.25 90.2787 22.25V30H87.2537V22.25C87.2537 21.2167 86.987 20.4417 86.4537 19.925C85.937 19.3917 85.287 19.125 84.5037 19.125C83.7204 19.125 83.0454 19.4 82.4787 19.95C81.9287 20.4833 81.6537 21.25 81.6537 22.25V30H78.6287V16.8ZM102.091 16.8H105.116V19.025H105.291C105.374 18.8083 105.549 18.5083 105.816 18.125C106.082 17.7417 106.499 17.375 107.066 17.025C107.632 16.6583 108.332 16.475 109.166 16.475C110.066 16.475 110.816 16.6833 111.416 17.1C112.016 17.5167 112.449 17.95 112.716 18.4C112.999 18.85 113.174 19.1833 113.241 19.4H113.416C113.682 18.8 114.124 18.1667 114.741 17.5C115.374 16.8167 116.366 16.475 117.716 16.475C118.832 16.475 119.732 16.7667 120.416 17.35C121.116 17.9167 121.616 18.625 121.916 19.475C122.216 20.3083 122.366 21.1333 122.366 21.95V30H119.341V22.25C119.341 21.2167 119.074 20.4417 118.541 19.925C118.024 19.3917 117.374 19.125 116.591 19.125C115.807 19.125 115.132 19.4 114.566 19.95C114.016 20.4833 113.741 21.25 113.741 22.25V30H110.716V22.25C110.716 21.2167 110.449 20.4417 109.916 19.925C109.399 19.3917 108.749 19.125 107.966 19.125C107.182 19.125 106.507 19.4 105.941 19.95C105.391 20.4833 105.116 21.25 105.116 22.25V30H102.091V16.8ZM131.255 30.2C129.888 30.2 128.73 29.8833 127.78 29.25C126.847 28.6167 126.147 27.7833 125.68 26.75C125.213 25.7167 124.98 24.5833 124.98 23.35C124.98 22.1333 125.213 21.0083 125.68 19.975C126.147 18.925 126.847 18.0833 127.78 17.45C128.73 16.8167 129.888 16.5 131.255 16.5C132.622 16.5 133.772 16.8167 134.705 17.45C135.655 18.0833 136.355 18.9167 136.805 19.95C137.272 20.9833 137.505 22.1083 137.505 23.325C137.505 24.5417 137.272 25.675 136.805 26.725C136.355 27.775 135.655 28.6167 134.705 29.25C133.772 29.8833 132.622 30.2 131.255 30.2ZM131.255 27.7C132.305 27.7 133.113 27.2833 133.68 26.45C134.247 25.6167 134.53 24.575 134.53 23.325C134.53 22.075 134.247 21.0417 133.68 20.225C133.113 19.3917 132.305 18.975 131.255 18.975C130.188 18.975 129.372 19.3917 128.805 20.225C128.255 21.0417 127.98 22.075 127.98 23.325C127.98 24.575 128.263 25.6167 128.83 26.45C129.397 27.2833 130.205 27.7 131.255 27.7ZM140.201 16.8H143.251V18.95H143.426C143.743 18.2667 144.243 17.6833 144.926 17.2C145.626 16.7167 146.476 16.475 147.476 16.475C149.176 16.475 150.401 17.025 151.151 18.125C151.901 19.225 152.276 20.5 152.276 21.95V30H149.251V22.425C149.251 21.3417 148.984 20.5083 148.451 19.925C147.934 19.325 147.218 19.025 146.301 19.025C145.318 19.025 144.559 19.3417 144.026 19.975C143.509 20.6083 143.251 21.425 143.251 22.425V30H140.201V16.8Z" fill="#EF4444" />
</svg>