<svg width="154" height="39" viewBox="0 0 154 39" fill="none" xmlns="http://www.w3.org/2000/svg">
<circle cx="19.5" cy="19.5" r="18.5" stroke="#FAFAFA" stroke-width="2"/>
<path d="M41.449 20.3843C41.449 28.8389 34.8322 35.6343 26.7407 35.6343C18.6492 35.6343 12.0323 28.8389 12.0323 20.3843C12.0323 11.9298 18.6492 5.13434 26.7407 5.13434C34.8322 5.13434 41.449 11.9298 41.449 20.3843Z" fill="#FAFAFA" stroke="#B91C1C" stroke-width="2"/>
<path d="M51.13 29H52.18L54.18 34.93H54.24L56.24 29H57.28L54.91 36H53.51L51.13 29ZM58.1963 30.73H59.2263V36H58.1963V30.73ZM58.7063 29.77C58.5263 29.77 58.3763 29.71 58.2563 29.59C58.1363 29.47 58.0763 29.32 58.0763 29.14C58.0763 28.96 58.1363 28.81 58.2563 28.69C58.3763 28.57 58.5263 28.51 58.7063 28.51C58.8863 28.51 59.0363 28.5733 59.1563 28.7C59.2763 28.82 59.3363 28.9667 59.3363 29.14C59.3363 29.3133 59.2763 29.4633 59.1563 29.59C59.0363 29.71 58.8863 29.77 58.7063 29.77ZM60.6937 30.73H61.7237V31.57H61.7837C61.8703 31.3367 62.0237 31.14 62.2437 30.98C62.4703 30.8133 62.7603 30.73 63.1137 30.73C63.207 30.73 63.287 30.7333 63.3537 30.74C63.4203 30.7467 63.487 30.7633 63.5537 30.79L63.5137 31.77C63.3337 31.7167 63.147 31.69 62.9537 31.69C62.5603 31.69 62.257 31.8033 62.0437 32.03C61.8303 32.25 61.7237 32.6167 61.7237 33.13V36H60.6937V30.73ZM65.9463 31.55V34.37C65.9463 34.6167 65.9563 34.7967 65.9763 34.91C66.0029 35.0233 66.0663 35.1133 66.1663 35.18C66.2729 35.2467 66.4463 35.28 66.6863 35.28C66.8529 35.28 67.0163 35.26 67.1763 35.22V35.95C67.1296 35.97 67.0196 35.99 66.8463 36.01C66.6729 36.03 66.4996 36.04 66.3263 36.04C65.9063 36.04 65.5929 35.98 65.3863 35.86C65.1796 35.7333 65.0463 35.5733 64.9863 35.38C64.9329 35.18 64.9062 34.92 64.9062 34.6L64.9163 31.55H63.9663V30.73H64.9163V29H65.9463V30.73H67.1763V31.55H65.9463ZM73.0297 36H71.9897V35.05H71.9197C71.7864 35.3433 71.5797 35.59 71.2997 35.79C71.0197 35.99 70.6797 36.09 70.2797 36.09C69.8264 36.09 69.4564 35.9833 69.1697 35.77C68.8897 35.55 68.6864 35.2733 68.5597 34.94C68.433 34.6 68.3697 34.2433 68.3697 33.87V30.73H69.3997V33.72C69.3997 34.1867 69.5164 34.55 69.7497 34.81C69.983 35.07 70.293 35.2 70.6797 35.2C71.0864 35.2 71.4064 35.0633 71.6397 34.79C71.873 34.51 71.9897 34.1533 71.9897 33.72V30.73H73.0297V36ZM76.2563 36.07C75.8029 36.07 75.4129 35.9533 75.0863 35.72C74.7596 35.4867 74.5096 35.1633 74.3363 34.75C74.1696 34.3367 74.0863 33.8667 74.0863 33.34C74.0863 32.8067 74.1729 32.3333 74.3463 31.92C74.5196 31.5067 74.7696 31.1833 75.0963 30.95C75.4296 30.71 75.8263 30.59 76.2863 30.59C76.7463 30.59 77.1129 30.6967 77.3863 30.91C77.6596 31.1233 77.8663 31.37 78.0063 31.65H78.0763V30.73H79.1163V36H78.0763V34.98H78.0063C77.8596 35.2733 77.6463 35.53 77.3663 35.75C77.0863 35.9633 76.7163 36.07 76.2563 36.07ZM76.6063 35.21C77.0796 35.21 77.4396 35.03 77.6863 34.67C77.9396 34.3033 78.0663 33.8567 78.0663 33.33C78.0663 32.8033 77.9396 32.36 77.6863 32C77.4396 31.64 77.0796 31.46 76.6063 31.46C76.1263 31.46 75.7629 31.64 75.5163 32C75.2696 32.36 75.1463 32.8 75.1463 33.32C75.1463 33.8533 75.2663 34.3033 75.5063 34.67C75.7529 35.03 76.1196 35.21 76.6063 35.21ZM81.9977 36.04C81.571 36.04 81.2543 35.9733 81.0477 35.84C80.841 35.7067 80.711 35.5367 80.6577 35.33C80.6043 35.1167 80.5777 34.8433 80.5777 34.51L80.5877 28.5H81.6177V34.33C81.6177 34.5767 81.6277 34.76 81.6477 34.88C81.6743 35 81.741 35.0967 81.8477 35.17C81.9543 35.2433 82.1243 35.28 82.3577 35.28C82.4843 35.28 82.5977 35.27 82.6977 35.25V35.99C82.4177 36.0233 82.1843 36.04 81.9977 36.04ZM87.6748 31.55V34.37C87.6748 34.6167 87.6848 34.7967 87.7048 34.91C87.7314 35.0233 87.7948 35.1133 87.8948 35.18C88.0014 35.2467 88.1748 35.28 88.4148 35.28C88.5814 35.28 88.7448 35.26 88.9048 35.22V35.95C88.8581 35.97 88.7481 35.99 88.5748 36.01C88.4014 36.03 88.2281 36.04 88.0548 36.04C87.6348 36.04 87.3214 35.98 87.1148 35.86C86.9081 35.7333 86.7748 35.5733 86.7148 35.38C86.6614 35.18 86.6348 34.92 86.6348 34.6L86.6448 31.55H85.6948V30.73H86.6448V29H87.6748V30.73H88.9048V31.55H87.6748ZM92.3682 36.07C91.8215 36.07 91.3615 35.94 90.9882 35.68C90.6149 35.42 90.3382 35.0833 90.1582 34.67C89.9782 34.25 89.8882 33.8033 89.8882 33.33C89.8882 32.8567 89.9782 32.4133 90.1582 32C90.3382 31.58 90.6149 31.24 90.9882 30.98C91.3682 30.72 91.8315 30.59 92.3782 30.59C93.0982 30.59 93.6715 30.8267 94.0982 31.3C94.5249 31.7667 94.7382 32.4467 94.7382 33.34V33.63H90.8982V33.7C90.8982 33.9667 90.9582 34.2167 91.0782 34.45C91.1982 34.6833 91.3682 34.8733 91.5882 35.02C91.8082 35.16 92.0615 35.23 92.3482 35.23C92.6615 35.23 92.9315 35.1533 93.1582 35C93.3849 34.84 93.5482 34.6267 93.6482 34.36H94.6682C94.5349 34.8533 94.2715 35.2633 93.8782 35.59C93.4849 35.91 92.9815 36.07 92.3682 36.07ZM93.7282 32.92C93.7015 32.38 93.5649 31.99 93.3182 31.75C93.0782 31.5033 92.7582 31.38 92.3582 31.38C91.9315 31.38 91.5882 31.52 91.3282 31.8C91.0749 32.08 90.9415 32.4533 90.9282 32.92H93.7282ZM95.8988 30.73H96.9288V31.57H96.9888C97.0754 31.3367 97.2288 31.14 97.4488 30.98C97.6754 30.8133 97.9654 30.73 98.3188 30.73C98.4121 30.73 98.4921 30.7333 98.5588 30.74C98.6254 30.7467 98.6921 30.7633 98.7588 30.79L98.7188 31.77C98.5388 31.7167 98.3521 31.69 98.1587 31.69C97.7654 31.69 97.4621 31.8033 97.2488 32.03C97.0354 32.25 96.9288 32.6167 96.9288 33.13V36H95.8988V30.73ZM99.6588 30.73H100.689V31.66H100.769C100.789 31.58 100.855 31.4567 100.969 31.29C101.082 31.1233 101.255 30.9667 101.489 30.82C101.722 30.6667 102.015 30.59 102.369 30.59C102.749 30.59 103.062 30.6767 103.309 30.85C103.562 31.0233 103.749 31.21 103.869 31.41C103.989 31.61 104.049 31.7367 104.049 31.79H104.129C104.162 31.6967 104.235 31.56 104.349 31.38C104.469 31.1933 104.659 31.0167 104.919 30.85C105.185 30.6767 105.515 30.59 105.909 30.59C106.342 30.59 106.699 30.7033 106.979 30.93C107.265 31.15 107.472 31.43 107.599 31.77C107.725 32.1033 107.789 32.45 107.789 32.81V36H106.759V32.91C106.759 32.4567 106.639 32.1133 106.399 31.88C106.165 31.64 105.875 31.52 105.529 31.52C105.169 31.52 104.862 31.6433 104.609 31.89C104.362 32.13 104.239 32.47 104.239 32.91V36H103.209V32.91C103.209 32.4567 103.089 32.1133 102.849 31.88C102.615 31.64 102.325 31.52 101.979 31.52C101.619 31.52 101.312 31.6433 101.059 31.89C100.812 32.13 100.689 32.47 100.689 32.91V36H99.6588V30.73ZM113.357 36.07C112.903 36.07 112.513 35.9533 112.187 35.72C111.86 35.4867 111.61 35.1633 111.437 34.75C111.27 34.3367 111.187 33.8667 111.187 33.34C111.187 32.8067 111.27 32.3333 111.437 31.92C111.61 31.5067 111.86 31.1833 112.187 30.95C112.52 30.71 112.917 30.59 113.377 30.59C113.837 30.59 114.203 30.6967 114.477 30.91C114.75 31.1233 114.957 31.37 115.097 31.65H115.167V28.5H116.217V36H115.167V34.98H115.097C114.95 35.2733 114.737 35.53 114.457 35.75C114.177 35.9633 113.81 36.07 113.357 36.07ZM113.697 35.21C114.17 35.21 114.53 35.03 114.777 34.67C115.03 34.31 115.157 33.8667 115.157 33.34C115.157 32.8133 115.03 32.37 114.777 32.01C114.53 31.65 114.17 31.47 113.697 31.47C113.21 31.47 112.847 31.65 112.607 32.01C112.367 32.3633 112.247 32.8033 112.247 33.33C112.247 33.8633 112.367 34.31 112.607 34.67C112.853 35.03 113.217 35.21 113.697 35.21ZM119.858 36.07C119.312 36.07 118.852 35.94 118.478 35.68C118.105 35.42 117.828 35.0833 117.648 34.67C117.468 34.25 117.378 33.8033 117.378 33.33C117.378 32.8567 117.468 32.4133 117.648 32C117.828 31.58 118.105 31.24 118.478 30.98C118.858 30.72 119.322 30.59 119.868 30.59C120.588 30.59 121.162 30.8267 121.588 31.3C122.015 31.7667 122.228 32.4467 122.228 33.34V33.63H118.388V33.7C118.388 33.9667 118.448 34.2167 118.568 34.45C118.688 34.6833 118.858 34.8733 119.078 35.02C119.298 35.16 119.552 35.23 119.838 35.23C120.152 35.23 120.422 35.1533 120.648 35C120.875 34.84 121.038 34.6267 121.138 34.36H122.158C122.025 34.8533 121.762 35.2633 121.368 35.59C120.975 35.91 120.472 36.07 119.858 36.07ZM121.218 32.92C121.192 32.38 121.055 31.99 120.808 31.75C120.568 31.5033 120.248 31.38 119.848 31.38C119.422 31.38 119.078 31.52 118.818 31.8C118.565 32.08 118.432 32.4533 118.418 32.92H121.218ZM126.249 36.07C125.796 36.07 125.429 35.9633 125.149 35.75C124.869 35.53 124.656 35.2733 124.509 34.98H124.439V38.05H123.389V30.73H124.439V31.65H124.509C124.649 31.37 124.856 31.1233 125.129 30.91C125.402 30.6967 125.769 30.59 126.229 30.59C126.689 30.59 127.082 30.71 127.409 30.95C127.742 31.1833 127.992 31.5067 128.159 31.92C128.332 32.3333 128.419 32.8067 128.419 33.34C128.419 33.8667 128.332 34.3367 128.159 34.75C127.992 35.1633 127.746 35.4867 127.419 35.72C127.092 35.9533 126.702 36.07 126.249 36.07ZM125.909 35.21C126.389 35.21 126.749 35.03 126.989 34.67C127.236 34.31 127.359 33.8633 127.359 33.33C127.359 32.8033 127.239 32.3633 126.999 32.01C126.759 31.65 126.396 31.47 125.909 31.47C125.436 31.47 125.072 31.65 124.819 32.01C124.572 32.37 124.449 32.8133 124.449 33.34C124.449 33.8667 124.572 34.31 124.819 34.67C125.072 35.03 125.436 35.21 125.909 35.21ZM131.88 36.07C131.34 36.07 130.883 35.9433 130.51 35.69C130.137 35.4367 129.857 35.1033 129.67 34.69C129.49 34.27 129.4 33.82 129.4 33.34C129.4 32.8533 129.49 32.4033 129.67 31.99C129.857 31.57 130.137 31.2333 130.51 30.98C130.883 30.72 131.34 30.59 131.88 30.59C132.42 30.59 132.877 30.72 133.25 30.98C133.623 31.2333 133.903 31.57 134.09 31.99C134.277 32.4033 134.37 32.85 134.37 33.33C134.37 33.81 134.277 34.26 134.09 34.68C133.903 35.0933 133.623 35.43 133.25 35.69C132.877 35.9433 132.42 36.07 131.88 36.07ZM131.88 35.21C132.34 35.21 132.697 35.03 132.95 34.67C133.21 34.31 133.34 33.86 133.34 33.32C133.34 32.78 133.21 32.3333 132.95 31.98C132.697 31.6267 132.34 31.45 131.88 31.45C131.427 31.45 131.07 31.63 130.81 31.99C130.55 32.3433 130.42 32.7867 130.42 33.32C130.42 33.86 130.547 34.31 130.8 34.67C131.06 35.03 131.42 35.21 131.88 35.21ZM137.378 36.07C136.945 36.07 136.571 35.9867 136.258 35.82C135.945 35.6533 135.705 35.4367 135.538 35.17C135.371 34.8967 135.288 34.6133 135.288 34.32V34.27H136.308V34.31C136.308 34.55 136.405 34.7667 136.598 34.96C136.791 35.1467 137.061 35.24 137.408 35.24C137.695 35.24 137.931 35.17 138.118 35.03C138.305 34.89 138.398 34.7 138.398 34.46C138.398 34.2533 138.325 34.0933 138.178 33.98C138.031 33.86 137.845 33.78 137.618 33.74L136.958 33.64C136.531 33.5733 136.168 33.4233 135.868 33.19C135.568 32.95 135.418 32.6033 135.418 32.15C135.418 31.6567 135.595 31.2733 135.948 31C136.301 30.7267 136.758 30.59 137.318 30.59C137.725 30.59 138.078 30.6667 138.378 30.82C138.678 30.9667 138.905 31.1633 139.058 31.41C139.211 31.6567 139.288 31.9233 139.288 32.21V32.25H138.268V32.23C138.268 32.03 138.188 31.8367 138.028 31.65C137.868 31.4633 137.621 31.37 137.288 31.37C137.008 31.37 136.781 31.44 136.608 31.58C136.435 31.72 136.348 31.9033 136.348 32.13C136.348 32.3233 136.421 32.48 136.568 32.6C136.715 32.72 136.898 32.7967 137.118 32.83L137.838 32.96C138.278 33.04 138.645 33.1967 138.938 33.43C139.238 33.6633 139.388 34.0033 139.388 34.45C139.388 34.77 139.301 35.0533 139.128 35.3C138.955 35.5467 138.715 35.7367 138.408 35.87C138.101 36.0033 137.758 36.07 137.378 36.07ZM140.579 30.73H141.609V36H140.579V30.73ZM141.089 29.77C140.909 29.77 140.759 29.71 140.639 29.59C140.519 29.47 140.459 29.32 140.459 29.14C140.459 28.96 140.519 28.81 140.639 28.69C140.759 28.57 140.909 28.51 141.089 28.51C141.269 28.51 141.419 28.5733 141.539 28.7C141.659 28.82 141.719 28.9667 141.719 29.14C141.719 29.3133 141.659 29.4633 141.539 29.59C141.419 29.71 141.269 29.77 141.089 29.77ZM144.686 31.55V34.37C144.686 34.6167 144.696 34.7967 144.716 34.91C144.743 35.0233 144.806 35.1133 144.906 35.18C145.013 35.2467 145.186 35.28 145.426 35.28C145.593 35.28 145.756 35.26 145.916 35.22V35.95C145.87 35.97 145.76 35.99 145.586 36.01C145.413 36.03 145.24 36.04 145.066 36.04C144.646 36.04 144.333 35.98 144.126 35.86C143.92 35.7333 143.786 35.5733 143.726 35.38C143.673 35.18 143.646 34.92 143.646 34.6L143.656 31.55H142.706V30.73H143.656V29H144.686V30.73H145.916V31.55H144.686Z" fill="#FAFAFA"/>
<path d="M54.725 23.225C53.3417 23.225 52.15 22.95 51.15 22.4C50.1667 21.8333 49.4167 21.1083 48.9 20.225C48.4 19.325 48.15 18.3917 48.15 17.425V17.275H51.475V17.425C51.475 17.8917 51.5917 18.3667 51.825 18.85C52.0583 19.3167 52.4167 19.7167 52.9 20.05C53.4 20.3667 54.025 20.525 54.775 20.525C55.675 20.525 56.4167 20.2917 57 19.825C57.5833 19.3583 57.875 18.7333 57.875 17.95C57.875 17.2833 57.6417 16.75 57.175 16.35C56.725 15.95 56.1583 15.6833 55.475 15.55L53.2 15.1C52.1167 14.8667 51.075 14.4083 50.075 13.725C49.0917 13.025 48.6 11.8583 48.6 10.225C48.6 9.19167 48.85 8.29167 49.35 7.525C49.8667 6.75833 50.5667 6.175 51.45 5.775C52.35 5.35833 53.3833 5.15 54.55 5.15C55.8667 5.15 56.9917 5.40833 57.925 5.925C58.875 6.44167 59.5917 7.10833 60.075 7.925C60.5583 8.74167 60.8 9.6 60.8 10.5V10.6H57.475V10.525C57.475 10.125 57.375 9.70833 57.175 9.275C56.9917 8.84167 56.6667 8.475 56.2 8.175C55.75 7.875 55.1583 7.725 54.425 7.725C53.575 7.725 52.9 7.95833 52.4 8.425C51.9 8.89167 51.65 9.48333 51.65 10.2C51.65 10.85 51.875 11.3667 52.325 11.75C52.775 12.1333 53.3583 12.4 54.075 12.55L56.25 13C57.5333 13.2667 58.65 13.775 59.6 14.525C60.5667 15.2583 61.05 16.375 61.05 17.875C61.05 18.925 60.775 19.8583 60.225 20.675C59.6917 21.475 58.9417 22.1 57.975 22.55C57.025 23 55.9417 23.225 54.725 23.225ZM75.4391 23H72.3891V20.775H72.2391C71.9224 21.4583 71.4224 22.0417 70.7391 22.525C70.0724 23.0083 69.2557 23.25 68.2891 23.25C67.1391 23.25 66.2141 22.975 65.5141 22.425C64.8141 21.8583 64.3224 21.1583 64.0391 20.325C63.7557 19.4917 63.6141 18.6333 63.6141 17.75V9.8H66.6391V17.275C66.6391 18.3417 66.8891 19.175 67.3891 19.775C67.8891 20.375 68.5807 20.675 69.4641 20.675C70.4141 20.675 71.1391 20.3583 71.6391 19.725C72.1391 19.075 72.3891 18.2583 72.3891 17.275V9.8H75.4391V23ZM78.6287 9.8H81.6537V12.025H81.8287C81.912 11.8083 82.087 11.5083 82.3537 11.125C82.6204 10.7417 83.037 10.375 83.6037 10.025C84.1704 9.65833 84.8704 9.475 85.7037 9.475C86.6037 9.475 87.3537 9.68333 87.9537 10.1C88.5537 10.5167 88.987 10.95 89.2537 11.4C89.537 11.85 89.712 12.1833 89.7787 12.4H89.9537C90.2204 11.8 90.662 11.1667 91.2787 10.5C91.912 9.81667 92.9037 9.475 94.2537 9.475C95.3704 9.475 96.2704 9.76667 96.9537 10.35C97.6537 10.9167 98.1537 11.625 98.4537 12.475C98.7537 13.3083 98.9037 14.1333 98.9037 14.95V23H95.8787V15.25C95.8787 14.2167 95.612 13.4417 95.0787 12.925C94.562 12.3917 93.912 12.125 93.1287 12.125C92.3454 12.125 91.6704 12.4 91.1037 12.95C90.5537 13.4833 90.2787 14.25 90.2787 15.25V23H87.2537V15.25C87.2537 14.2167 86.987 13.4417 86.4537 12.925C85.937 12.3917 85.287 12.125 84.5037 12.125C83.7204 12.125 83.0454 12.4 82.4787 12.95C81.9287 13.4833 81.6537 14.25 81.6537 15.25V23H78.6287V9.8ZM102.091 9.8H105.116V12.025H105.291C105.374 11.8083 105.549 11.5083 105.816 11.125C106.082 10.7417 106.499 10.375 107.066 10.025C107.632 9.65833 108.332 9.475 109.166 9.475C110.066 9.475 110.816 9.68333 111.416 10.1C112.016 10.5167 112.449 10.95 112.716 11.4C112.999 11.85 113.174 12.1833 113.241 12.4H113.416C113.682 11.8 114.124 11.1667 114.741 10.5C115.374 9.81667 116.366 9.475 117.716 9.475C118.832 9.475 119.732 9.76667 120.416 10.35C121.116 10.9167 121.616 11.625 121.916 12.475C122.216 13.3083 122.366 14.1333 122.366 14.95V23H119.341V15.25C119.341 14.2167 119.074 13.4417 118.541 12.925C118.024 12.3917 117.374 12.125 116.591 12.125C115.807 12.125 115.132 12.4 114.566 12.95C114.016 13.4833 113.741 14.25 113.741 15.25V23H110.716V15.25C110.716 14.2167 110.449 13.4417 109.916 12.925C109.399 12.3917 108.749 12.125 107.966 12.125C107.182 12.125 106.507 12.4 105.941 12.95C105.391 13.4833 105.116 14.25 105.116 15.25V23H102.091V9.8ZM131.255 23.2C129.888 23.2 128.73 22.8833 127.78 22.25C126.847 21.6167 126.147 20.7833 125.68 19.75C125.213 18.7167 124.98 17.5833 124.98 16.35C124.98 15.1333 125.213 14.0083 125.68 12.975C126.147 11.925 126.847 11.0833 127.78 10.45C128.73 9.81667 129.888 9.5 131.255 9.5C132.622 9.5 133.772 9.81667 134.705 10.45C135.655 11.0833 136.355 11.9167 136.805 12.95C137.272 13.9833 137.505 15.1083 137.505 16.325C137.505 17.5417 137.272 18.675 136.805 19.725C136.355 20.775 135.655 21.6167 134.705 22.25C133.772 22.8833 132.622 23.2 131.255 23.2ZM131.255 20.7C132.305 20.7 133.113 20.2833 133.68 19.45C134.247 18.6167 134.53 17.575 134.53 16.325C134.53 15.075 134.247 14.0417 133.68 13.225C133.113 12.3917 132.305 11.975 131.255 11.975C130.188 11.975 129.372 12.3917 128.805 13.225C128.255 14.0417 127.98 15.075 127.98 16.325C127.98 17.575 128.263 18.6167 128.83 19.45C129.397 20.2833 130.205 20.7 131.255 20.7ZM140.201 9.8H143.251V11.95H143.426C143.743 11.2667 144.243 10.6833 144.926 10.2C145.626 9.71667 146.476 9.475 147.476 9.475C149.176 9.475 150.401 10.025 151.151 11.125C151.901 12.225 152.276 13.5 152.276 14.95V23H149.251V15.425C149.251 14.3417 148.984 13.5083 148.451 12.925C147.934 12.325 147.218 12.025 146.301 12.025C145.318 12.025 144.559 12.3417 144.026 12.975C143.509 13.6083 143.251 14.425 143.251 15.425V23H140.201V9.8Z" fill="#FAFAFA"/>
</svg>
