<svg width="70" height="70" viewBox="0 0 70 70" fill="currentColor" xmlns="http://www.w3.org/2000/svg">
  <g clip-path="url(#clip0_7687_672)">
    <path fill="currentColor" d="M54.2638 8.11245C62.7404 14.1671 68.2569 24.0699 68.2569 35.2778C68.2569 53.6841 53.3489 68.6055 34.9561 68.6459C16.5902 68.6862 1.54769 53.711 1.52078 35.3316C1.50732 24.1237 7.02382 14.1941 15.4869 8.12591C17.0611 7.00916 19.2543 7.48008 20.1961 9.16193L22.322 12.9427C23.1158 14.3555 22.7391 16.145 21.434 17.1138C15.8502 21.2579 12.2847 27.8238 12.2847 35.2644C12.2712 47.6832 22.3085 57.882 34.8888 57.882C47.2135 57.882 57.5737 47.8985 57.493 35.1298C57.4526 28.1602 54.1697 21.4328 48.3302 17.1003C47.0251 16.1316 46.6618 14.3421 47.4557 12.9427L49.5815 9.16193C50.5234 7.49353 52.7031 6.9957 54.2638 8.11245ZM40.2708 36.3542V4.06254C40.2708 2.27304 38.8311 0.833374 37.0416 0.833374H32.7361C30.9466 0.833374 29.5069 2.27304 29.5069 4.06254V36.3542C29.5069 38.1437 30.9466 39.5834 32.7361 39.5834H37.0416C38.8311 39.5834 40.2708 38.1437 40.2708 36.3542Z" />
  </g>
  <defs>
    <clipPath id="clip0_7687_672">
      <rect width="68.8889" height="68.8889" fill="white" transform="translate(0.444336 0.833374)" />
    </clipPath>
  </defs>
</svg>